<svg xmlns="http://www.w3.org/2000/svg" viewBox="0 0 28.18 27.54" fill="#1B4883"><path d="M13.72.56l.08.07.06.07a2.12 2.12 0 0 0 1.3.6 1.18 1.18 0 0 0 1-.59 2.3 2.3 0 0 0 .33-.71 2.56 2.56 0 0 1-.33.71 1.17 1.17 0 0 1-1 .58 2.08 2.08 0 0 1-1.29-.6.46.46 0 0 0-.07-.07l-.07-.07a7.16 7.16 0 0 0-.61-.48L13 0l.11.08c.21.15.42.31.61.48zM.86 1.81a3 3 0 0 0 .75-.92A2.64 2.64 0 0 0 1.84 0a2.71 2.71 0 0 1-.24.89 3 3 0 0 1-.75.91A2.74 2.74 0 0 0 0 2.92V3v-.09a2.67 2.67 0 0 1 .86-1.1z"/><path d="M15.07.69a.6.6 0 0 0 .39-.14.78.78 0 0 0 .23-.26l.08-.12a.58.58 0 0 0 .06-.17l-.06.16-.08.12a.78.78 0 0 1-.23.26.64.64 0 0 1-.38.14 1.76 1.76 0 0 1-1-.6L14 0v.08a1.75 1.75 0 0 0 1.07.61zM.24 4.1a4 4 0 0 1 .22-.88 3.34 3.34 0 0 1 .83-1.05 5.59 5.59 0 0 0 .62-.67 3.4 3.4 0 0 0 .52-.86 5.12 5.12 0 0 0 .21-.59V.1a5.12 5.12 0 0 1-.21.59 3.36 3.36 0 0 1-.52.85 5.59 5.59 0 0 1-.62.67 3.5 3.5 0 0 0-.84 1 6.08 6.08 0 0 0-.22.89A5.28 5.28 0 0 1 0 5a4.82 4.82 0 0 0 .24-.9zM1.3 8.31a2.15 2.15 0 0 1 1.24.87 1.67 1.67 0 0 1-.17.69 2.11 2.11 0 0 0-.2 1.23 2 2 0 0 0 .61 1 5.22 5.22 0 0 1 .36.42 5.45 5.45 0 0 1 .67 1.25c.17.39.3.69.72.8.26.06.62.1.86.13h.38a1.65 1.65 0 0 0 .48-.06 1.53 1.53 0 0 0 .75-.58l.22-.28.21-.22a1.58 1.58 0 0 0 .37-.46.76.76 0 0 0 0-.15.61.61 0 0 1 0-.14 3.65 3.65 0 0 0-.52-.52 2 2 0 0 1-.72-.95 1.12 1.12 0 0 1 .07-.73 2.18 2.18 0 0 1 .71-.87l.5-.4a14.61 14.61 0 0 0 2.25-2 .83.83 0 0 0 0-.27 2.14 2.14 0 0 0-.57-.86 2.3 2.3 0 0 0-.86-.54h-.1a2.75 2.75 0 0 0-1 0 3.53 3.53 0 0 1-.85 0 1.35 1.35 0 0 1-1.23-1.01c-.19-.79.35-1.29.87-1.77a2.63 2.63 0 0 0 .89-1.22A2.78 2.78 0 0 0 7.12.39C7.09.26 7 .13 7 0l.12.4a2.87 2.87 0 0 1 .11 1.27 2.57 2.57 0 0 1-.88 1.21c-.53.48-1.07 1-.87 1.79a1.35 1.35 0 0 0 1.15 1.08 3.53 3.53 0 0 0 .85 0 3 3 0 0 1 1 0h.1A2.41 2.41 0 0 1 10 7.09a.55.55 0 0 1 0 .25 15.18 15.18 0 0 1-2.25 2l-.5.39a2.26 2.26 0 0 0-.72.88 1.18 1.18 0 0 0-.06.73 2 2 0 0 0 .72 1 3.65 3.65 0 0 1 .52.52V13a.38.38 0 0 1 0 .15 1.7 1.7 0 0 1-.37.45l-.21.22-.13.23a1.51 1.51 0 0 1-.7.62 2.34 2.34 0 0 1-.86 0 6.49 6.49 0 0 1-.85-.13c-.42-.1-.55-.4-.71-.79a5.72 5.72 0 0 0-.68-1.25l-.36-.42a1.86 1.86 0 0 1-.6-1 2.07 2.07 0 0 1 .19-1.23 1.38 1.38 0 0 0 .17-.69 2.18 2.18 0 0 0-1.29-.86 2.55 2.55 0 0 0-.39-.13A5.28 5.28 0 0 0 0 8.05a5.06 5.06 0 0 1 .91.12 2.23 2.23 0 0 1 .39.14z"/><path d="M7.93.38c0 .13.07.27.11.4a5 5 0 0 1 .2.81 1.28 1.28 0 0 1 0 .48 2 2 0 0 1-.56 1 1.88 1.88 0 0 0-.6 1.14c0 .42.5.48 1 .55h.28a7 7 0 0 1 1.23.34l.43.2a2.49 2.49 0 0 0 .83.29H11a1.66 1.66 0 0 0 .53-.11 3.89 3.89 0 0 0 .41-.17 2.77 2.77 0 0 1 .89-.31H13a4 4 0 0 1 1.14.22 2.84 2.84 0 0 0 .88.19h.18a1.4 1.4 0 0 0 1-.71 4.69 4.69 0 0 0 .47-1.3 3.7 3.7 0 0 0 .11-.56.45.45 0 0 0-.08-.38c-.14-.16-.41-.17-.72-.18h-.44a6.33 6.33 0 0 1-1.72-.4c-.47-.2-.95-.45-1.26-.62A4.42 4.42 0 0 1 11.09 0a4.27 4.27 0 0 0 1.56 1.26 12.4 12.4 0 0 0 1.26.62 6.32 6.32 0 0 0 1.73.4 3.15 3.15 0 0 0 .44 0c.31 0 .58 0 .71.17a.48.48 0 0 1 .08.37c0 .18-.08.43-.11.57-.22.9-.53 1.87-1.51 2h-.18a2.9 2.9 0 0 1-.88-.19A3.67 3.67 0 0 0 13 5h-.21a2.56 2.56 0 0 0-.93.27 3.89 3.89 0 0 1-.41.17 1.66 1.66 0 0 1-.53.11h-.11a2.44 2.44 0 0 1-.81-.27l-.44-.2a6.89 6.89 0 0 0-1.22-.34h-.28c-.5-.06-1-.12-1-.53A1.93 1.93 0 0 1 7.69 3a2.2 2.2 0 0 0 .57-1 2 2 0 0 0 0-.49 7.92 7.92 0 0 0-.2-.81L7.94.38c0-.09-.05-.18-.07-.27a.76.76 0 0 0 0-.11v.12c.01.08.03.17.06.26zM.91.87A1.53 1.53 0 0 0 1.16 0 1.47 1.47 0 0 1 .9.86a2 2 0 0 1-.67.58L0 1.59l.24-.16A2 2 0 0 0 .91.87z"/><path d="M8.78 1.17a1.89 1.89 0 0 1 .22.55 1.47 1.47 0 0 1-.45 1.19 1.62 1.62 0 0 0-.4.69.43.43 0 0 0 0 .16v.1a.8.8 0 0 0 .42.39 7.7 7.7 0 0 0 2.14.5h.3a4.92 4.92 0 0 0 .76-.09 4.62 4.62 0 0 1 .87-.1h.68a3.92 3.92 0 0 1 .69.12 4 4 0 0 0 .93.12H15a1 1 0 0 0 .7-.81 1.06 1.06 0 0 0-.24-.99 5.47 5.47 0 0 0-2.17-.63h-.35a3.1 3.1 0 0 1-.41 0 2 2 0 0 1-1.18-.56A5 5 0 0 1 10.19.26a2.17 2.17 0 0 1-.12-.26 2.38 2.38 0 0 0 .12.27 5.14 5.14 0 0 0 1.16 1.47 2 2 0 0 0 1.19.57h.75a5.93 5.93 0 0 1 2.17.69 1.05 1.05 0 0 1 .26 1.09 1 1 0 0 1-.69.79h-.12a3.81 3.81 0 0 1-.91-.15 4.23 4.23 0 0 0-.7-.12h-.68a4.83 4.83 0 0 0-.88.1 3.75 3.75 0 0 1-.75.09 1.51 1.51 0 0 1-.3 0 7.63 7.63 0 0 1-2.13-.5.78.78 0 0 1-.42-.38v-.1a.26.26 0 0 1 0-.15 1.6 1.6 0 0 1 .39-.69A1.52 1.52 0 0 0 9 1.72a2.13 2.13 0 0 0-.2-.55L8.7 1a6.71 6.71 0 0 1-.3-1 6.87 6.87 0 0 0 .3 1zM1.35 6.44c.18-.2.34-.42.51-.64a6 6 0 0 1 .91-1l.08-.08.06-.06a5.63 5.63 0 0 1 .77-.54c.18-.11.36-.22.54-.35l.41-.31A7.36 7.36 0 0 1 5.26 3l.31-.21a2.22 2.22 0 0 0 1.26-1.5A2.51 2.51 0 0 0 6.57 0a2.41 2.41 0 0 1 .26 1.29c-.09.71-.7 1.1-1.24 1.44l-.32.21c-.21.14-.42.31-.63.46l-.41.32c-.18.13-.36.24-.54.35a5 5 0 0 0-.76.54l-.07.06a.6.6 0 0 1-.08.08 6 6 0 0 0-.91 1c-.17.22-.33.44-.51.64A2.41 2.41 0 0 1 0 7.2a2.51 2.51 0 0 0 1.35-.76zm-.8-.51a1.91 1.91 0 0 0 .16-1.09A3.42 3.42 0 0 1 .9 3.48a3 3 0 0 1 .87-1l.15-.15A5.33 5.33 0 0 0 3.29.44a1.34 1.34 0 0 1 .07-.18A1.28 1.28 0 0 1 3.45 0a.85.85 0 0 0-.09.22c0 .06-.05.12-.08.17a5.37 5.37 0 0 1-1.36 1.93 1.07 1.07 0 0 0-.16.14 3.14 3.14 0 0 0-.87 1A3.31 3.31 0 0 0 .7 4.84a2 2 0 0 1-.16 1.08 1.27 1.27 0 0 1-.54.42 1.39 1.39 0 0 0 .55-.41zM.19.36A.52.52 0 0 0 .32 0a.56.56 0 0 1-.13.35.26.26 0 0 1-.19.09.25.25 0 0 0 .19-.08z"/><path d="M4.21.21a3.28 3.28 0 0 0-.46.8l-.06.13A7.41 7.41 0 0 1 3 2.42a2.22 2.22 0 0 1-.62.48 1.68 1.68 0 0 0-.85.81.81.81 0 0 0 0 .49.24.24 0 0 0 .25.16.93.93 0 0 0 .51-.23 3.21 3.21 0 0 0 .51-.58c.08-.12.17-.23.26-.34a2.44 2.44 0 0 1 .32-.3 6.64 6.64 0 0 1 1.09-.45A4.72 4.72 0 0 0 6 1.73 1.07 1.07 0 0 0 6.3 1 1.22 1.22 0 0 0 6 .12.49.49 0 0 0 5.86 0L6 .12a1.23 1.23 0 0 1 .29.88 1.07 1.07 0 0 1-.29.72 4.52 4.52 0 0 1-1.51.73 6.05 6.05 0 0 0-1.08.45 2.07 2.07 0 0 0-.33.3c-.09.11-.18.22-.26.34a3.21 3.21 0 0 1-.51.58.9.9 0 0 1-.5.23.23.23 0 0 1-.24-.16.78.78 0 0 1 0-.48 1.68 1.68 0 0 1 .84-.8A2.27 2.27 0 0 0 3 2.43a8.68 8.68 0 0 0 .69-1.28L3.77 1a3.08 3.08 0 0 1 .45-.8 1 1 0 0 1 .24-.2 1.1 1.1 0 0 0-.25.21zm5.16 3.34a.26.26 0 0 1 .05.09.56.56 0 0 0 .4.14.8.8 0 0 0 .58-.24.36.36 0 0 0 .06-.3C10.42 3.06 10.24 3 10 3c-.34 0-.69.25-.66.6zM10 3c.2 0 .38.11.43.3a.36.36 0 0 1-.06.28.76.76 0 0 1-.57.24.55.55 0 0 1-.39-.14.19.19 0 0 0 0-.1C9.35 3.16 9.79 3 10 3zm2.91.77a1.81 1.81 0 0 0 .87.22c.2 0 .55 0 .65-.31a.34.34 0 0 0-.11-.25 1 1 0 0 0-.69-.22c-.37 0-.77.14-.77.46a.26.26 0 0 1 .05.1zm.72-.54a1 1 0 0 1 .68.22.33.33 0 0 1 .1.24c-.09.26-.43.3-.63.3a1.8 1.8 0 0 1-.86-.22.31.31 0 0 0-.05-.1c.01-.3.4-.44.76-.44zM3.61 10a3.43 3.43 0 0 0-.12 1.14 6.22 6.22 0 0 0 .89 2 1.58 1.58 0 0 0 .31.33 1.11 1.11 0 0 0 .69.24.78.78 0 0 0 .6-.25.93.93 0 0 0 .17-.75 3.75 3.75 0 0 0-.15-.56 2.29 2.29 0 0 1-.16-.55 2.18 2.18 0 0 1 .8-1.93 7.52 7.52 0 0 1 .76-.57 7.58 7.58 0 0 0 .81-.62 2.33 2.33 0 0 0 .93-1.4 1.07 1.07 0 0 0-.47-.81A1.12 1.12 0 0 0 8 6.08a4.3 4.3 0 0 0-.69.08 4.48 4.48 0 0 1-.82.1h-.2a2.58 2.58 0 0 1-.48-.1A3.82 3.82 0 0 0 5.13 6H5a1.62 1.62 0 0 0-.76.47 2.35 2.35 0 0 0-.75.93 1.87 1.87 0 0 0 0 .41 3.29 3.29 0 0 0 .1.51 3 3 0 0 1 .11 1 3.8 3.8 0 0 1-.09.68zm0-1.65a3.54 3.54 0 0 1-.1-.51 1.78 1.78 0 0 1 0-.4 2.28 2.28 0 0 1 .75-.93A1.62 1.62 0 0 1 5 6.06h.11a3.15 3.15 0 0 1 .68.12 3.31 3.31 0 0 0 .48.09h.2a4.38 4.38 0 0 0 .82-.1A4.3 4.3 0 0 1 8 6.09a1.19 1.19 0 0 1 .66.18 1.07 1.07 0 0 1 .47.81 2.3 2.3 0 0 1-.93 1.39 7.58 7.58 0 0 1-.81.62 7.52 7.52 0 0 0-.76.57 2.17 2.17 0 0 0-.8 1.94 2.81 2.81 0 0 0 .15.55 3.17 3.17 0 0 1 .16.56.9.9 0 0 1-.17.73.76.76 0 0 1-.59.24 1.16 1.16 0 0 1-.69-.22 2.29 2.29 0 0 1-.3-.34 6.27 6.27 0 0 1-.89-2A3.72 3.72 0 0 1 3.62 10a3.8 3.8 0 0 0 .11-.62 3 3 0 0 0-.11-1.02z"/><path d="M4.42 10a.8.8 0 0 1 0 .18.71.71 0 0 0 .3.6c.28 0 .46-.27.64-.53l.26-.25A6.63 6.63 0 0 1 7 8.85a6.78 6.78 0 0 0 .88-.67A.5.5 0 0 0 8 8a1.07 1.07 0 0 1 .14-.16.92.92 0 0 0 .21-.9c-.08-.15-.26-.34-.73-.34h-.16L7 6.69l-.65.11h-.18a1.68 1.68 0 0 0-1.34.53 2 2 0 0 0-.44 1.2 8.14 8.14 0 0 0 0 1c.02.16.03.31.03.47zm0-1.44a2 2 0 0 1 .43-1.19c.36-.43.71-.46 1.33-.53h.14L7 6.71a3.43 3.43 0 0 1 .5-.08h.19c.46 0 .64.18.72.33a.88.88 0 0 1-.21.88A1.07 1.07 0 0 0 8 8a.65.65 0 0 1-.19.18 7.66 7.66 0 0 1-.89.67 6.63 6.63 0 0 0-1.33 1.1l-.21.28c-.18.26-.36.51-.63.53s-.26-.36-.3-.6v-.62a6.53 6.53 0 0 1-.04-1zm8.45-.14a3.37 3.37 0 0 0 .92 2.43 3.36 3.36 0 0 0 2 .87 1.39 1.39 0 0 0 1.12-.51 3 3 0 0 0 .52-1s0-.08.05-.13l.09-.22a5.56 5.56 0 0 0 .35-1.17 1.31 1.31 0 0 0-.51-1.32 3 3 0 0 0-1.9-.52h-.58c-.33 0-.7-.07-1-.07a1.32 1.32 0 0 0-.68.12c-.5.34-.44 1.15-.39 1.48zm.39-1.58a1.32 1.32 0 0 1 .67-.11c.32 0 .69 0 1 .06h.58a2.93 2.93 0 0 1 1.89.51 1.29 1.29 0 0 1 .51 1.31 5.18 5.18 0 0 1-.36 1.16 2.09 2.09 0 0 1-.08.23v.13a3.44 3.44 0 0 1-.52 1 1.39 1.39 0 0 1-1.11.5 3.39 3.39 0 0 1-2-.87 3.38 3.38 0 0 1-.91-2.42v-.03c-.11-.31-.17-1.14.33-1.47z"/><path d="M13.56 8.57a2.62 2.62 0 0 0 .81 2 2.46 2.46 0 0 0 1.38.51 1.09 1.09 0 0 0 .67-.2 2.59 2.59 0 0 0 .77-1.79 1.72 1.72 0 0 0-.66-1.56A2.8 2.8 0 0 0 15 7.19h-.36a1.12 1.12 0 0 0-1 .39 1.77 1.77 0 0 0-.11.86zm.12-1a1.1 1.1 0 0 1 1-.38H15a2.77 2.77 0 0 1 1.49.35 1.71 1.71 0 0 1 .65 1.55 2.55 2.55 0 0 1-.75 1.78 1.11 1.11 0 0 1-.67.2 2.39 2.39 0 0 1-1.37-.52 2.52 2.52 0 0 1-.81-2v-.13a1.71 1.71 0 0 1 .14-.85zm-8.09.87l.05.05c.05.05 0 0 .07.06a2.61 2.61 0 0 0 1.1-.5.75.75 0 0 0 .29-.39l-.06-.07h-.21a1.49 1.49 0 0 0-1 .37.81.81 0 0 0-.21.55zm.22-.54a1.47 1.47 0 0 1 1-.36H7l.06.07a.69.69 0 0 1-.25.39 2.64 2.64 0 0 1-1.09.5h-.06v-.05a.71.71 0 0 1 .15-.55z"/><path d="M14.92 10.21a1.25 1.25 0 0 0 .68.22.86.86 0 0 0 .72-.37A1.68 1.68 0 0 0 16 8a1.34 1.34 0 0 0-.82-.27 1.27 1.27 0 0 0-.28 0c-.42.06-.63.39-.62.93a1.81 1.81 0 0 0 .64 1.55zm-.06-2.46a1.27 1.27 0 0 1 .28 0A1.33 1.33 0 0 1 16 8a1.55 1.55 0 0 1 .55 1 1.44 1.44 0 0 1-.19 1.07.84.84 0 0 1-.71.36 1.28 1.28 0 0 1-.68-.21 1.85 1.85 0 0 1-.67-1.53c-.06-.55.15-.87.56-.94zM1.64 13.86a2.94 2.94 0 0 0 .17.26c.09.11.23.29.43.26a.6.6 0 0 0 .46-.67.93.93 0 0 0-.64-.71H2a.76.76 0 0 1-.46-.34 8.24 8.24 0 0 1-.14-1.36 12.13 12.13 0 0 0-.08-1.25A1.46 1.46 0 0 0 .18 8.73L0 8.69h.18a1.43 1.43 0 0 1 1.12 1.36 12 12 0 0 1 .09 1.25 8.48 8.48 0 0 0 .12 1.36A.76.76 0 0 0 2 13h.08c.39.17.59.39.63.68a.59.59 0 0 1-.44.66c-.19 0-.33-.15-.42-.26a3.18 3.18 0 0 1-.17-.27c-.16-.3-.34-.62-.84-.54a2.14 2.14 0 0 0-.81.38 2.1 2.1 0 0 1 .81-.39c.46-.02.64.3.8.6z"/><path d="M.32 12.12a1.8 1.8 0 0 0 .43-1.29 1.71 1.71 0 0 0-.49-1.19.68.68 0 0 0-.26-.12 1.15 1.15 0 0 1 .25.12 1.69 1.69 0 0 1 .49 1.18 1.91 1.91 0 0 1-.42 1.29 2.69 2.69 0 0 1-.32.27 1.43 1.43 0 0 0 .32-.26zm11.74.09c0-.09-.06-.19-.09-.28a5.43 5.43 0 0 0-1.39-1.81 2.08 2.08 0 0 0-.79-.48h-.15a1.44 1.44 0 0 0-1.29 1.06.19.19 0 0 0 0 .07v.11a10.7 10.7 0 0 0 .67 1.31 2.82 2.82 0 0 0 .38.51 2.25 2.25 0 0 0 1.5.61 1.2 1.2 0 0 0 .73-.22.9.9 0 0 0 .43-.88zm-1.13 1.09a2.24 2.24 0 0 1-1.49-.6 2.32 2.32 0 0 1-.37-.5 10.23 10.23 0 0 1-.68-1.32.2.2 0 0 0 0-.11.64.64 0 0 0 0-.07 1.44 1.44 0 0 1 1.25-1.06h.14a2.14 2.14 0 0 1 .79.48A5.56 5.56 0 0 1 12 11.94a2.14 2.14 0 0 1 .09.27.89.89 0 0 1-.4.88 1.18 1.18 0 0 1-.76.21z"/><path d="M10.83 11.11a1.84 1.84 0 0 0-.88-.48h-.14a.53.53 0 0 0-.39.15.7.7 0 0 0-.15.52 1.94 1.94 0 0 0 .57 1.17 1.42 1.42 0 0 0 .85.3.65.65 0 0 0 .69-.46.94.94 0 0 0 0-.29 1.62 1.62 0 0 0-.55-.91zm.53 1.18a.62.62 0 0 1-.67.44 1.4 1.4 0 0 1-.84-.29 1.94 1.94 0 0 1-.57-1.16.74.74 0 0 1 .15-.51.54.54 0 0 1 .38-.14H10A2 2 0 0 1 11.37 12a.93.93 0 0 1-.01.29zM14 13.34h-.11a.57.57 0 0 0-.22 0 1.56 1.56 0 0 0-1 .83 1.51 1.51 0 0 0 0 .79 1.42 1.42 0 0 1 0 .68 1.56 1.56 0 0 1-.66.71 1.34 1.34 0 0 0-.66.75.81.81 0 0 0 .18.67 1.44 1.44 0 0 0 1.08.46 1.19 1.19 0 0 0 .7-.21 1.82 1.82 0 0 0 .35-.42 2.18 2.18 0 0 0 .18-.71 3.66 3.66 0 0 1 .15-.7 3 3 0 0 1 .14-.36 2.33 2.33 0 0 0 .22-1.36 1.76 1.76 0 0 0-.35-1.13zm.14 2.48c0 .12-.1.23-.15.37a3.47 3.47 0 0 0-.14.7 2.46 2.46 0 0 1-.18.71 1.45 1.45 0 0 1-.35.42 1.17 1.17 0 0 1-.69.2 1.44 1.44 0 0 1-1.07-.44.82.82 0 0 1-.18-.67c.07-.33.36-.53.66-.74a1.61 1.61 0 0 0 .66-.71 1.34 1.34 0 0 0 0-.69 1.51 1.51 0 0 1 0-.79 1.58 1.58 0 0 1 1-.82.93.93 0 0 1 .22 0H14a1.75 1.75 0 0 1 .37 1.12 2.3 2.3 0 0 1-.25 1.34zM2 15.93a.28.28 0 0 0-.21-.08.58.58 0 0 0-.4.22.83.83 0 0 0-.21.57.56.56 0 0 0 .54.43.44.44 0 0 0 .37-.19.83.83 0 0 0-.09-.95zm.08.94a.42.42 0 0 1-.36.18.53.53 0 0 1-.52-.41.74.74 0 0 1 .2-.56.56.56 0 0 1 .39-.22.34.34 0 0 1 .21.08.81.81 0 0 1 0 .93zm4.64.78v-.07a.35.35 0 0 0-.17-.06.37.37 0 0 0-.26.12.3.3 0 0 0-.09.25.23.23 0 0 0 .22.14.37.37 0 0 0 .36-.31zm-.33.35a.23.23 0 0 1-.21-.13.28.28 0 0 1 .09-.24.34.34 0 0 1 .25-.11.3.3 0 0 1 .16.05v.13a.37.37 0 0 1-.29.3zM24.35.24a1.25 1.25 0 0 0 1 0 1 1 0 0 0 .38-.24.85.85 0 0 1-.37.27 1.2 1.2 0 0 1-1 0 1 1 0 0 1-.29-.27 1.05 1.05 0 0 0 .28.24zM13.16.78a3.38 3.38 0 0 1 .36.27 3 3 0 0 0 .82.51 2 2 0 0 0 .91.24 1.5 1.5 0 0 0 .69-.17A2.4 2.4 0 0 0 17.09 0a2.39 2.39 0 0 1-1.13 1.62 1.75 1.75 0 0 1-1.6-.07 2.92 2.92 0 0 1-.83-.55c-.12 0-.23-.15-.36-.23l-.4-.28c-.24-.16-.48-.32-.69-.49a6.25 6.25 0 0 0 .7.5zm4.62.22a.57.57 0 0 0 .59.32 3 3 0 0 0 .44-.05h.1a1.53 1.53 0 0 1 .36.07h.34a3.35 3.35 0 0 1 .62.17l.23.11a2.47 2.47 0 0 1 1 .66v.06c.18.26.33.54.48.81a7.13 7.13 0 0 0 .54.92c.2.28.47.59.73.89l.26.3a2 2 0 0 0 1.53 1 2.3 2.3 0 0 0 .6-.09 3.12 3.12 0 0 0 2.1-1.5 5.42 5.42 0 0 0 .3-.88 7.5 7.5 0 0 1 .18-.79 8.21 8.21 0 0 0-.2.82 5.25 5.25 0 0 1-.23.93 3.1 3.1 0 0 1-2.1 1.5 2.6 2.6 0 0 1-.59.08 2 2 0 0 1-1.52-1L23.28 5c-.26-.3-.53-.61-.73-.89a9.46 9.46 0 0 1-.55-.87 8.37 8.37 0 0 0-.48-.82v-.06a2.56 2.56 0 0 0-1-.67l-.23-.1a2.64 2.64 0 0 0-.61-.17h-.34a1.21 1.21 0 0 0-.37-.07h-.1a3 3 0 0 1-.44 0 .56.56 0 0 1-.58-.3 2.29 2.29 0 0 1 0-.88V.03a.61.61 0 0 0 0 .14 2.1 2.1 0 0 0-.07.83z"/><path d="M23.18.4a2.26 2.26 0 0 0 1.82.84 2.44 2.44 0 0 0 .55-.06 1.25 1.25 0 0 0 1-1.18 1.94 1.94 0 0 1-.14.5 1.08 1.08 0 0 1-.84.67 2.44 2.44 0 0 1-.55.06 2.27 2.27 0 0 1-1.83-.84 2.66 2.66 0 0 1-.11-.39c0 .15.08.29.12.4zm-3.71.27a6.37 6.37 0 0 1 1 .26c.2.06.42.13.63.18l.4.08h.33q.29 0 .33-.12A3.25 3.25 0 0 0 22.34 0a3.13 3.13 0 0 1-.18 1.09c0 .08-.14.11-.32.11h-.33a3.38 3.38 0 0 1-.4-.07c-.21-.05-.42-.12-.63-.19a6.52 6.52 0 0 0-1-.25A1 1 0 0 1 18.7 0a1 1 0 0 0 .77.67z"/><path d="M27.09.34c0 .48 0 .89-.35 1.14a2.86 2.86 0 0 1-1.34.38h-.35a4.72 4.72 0 0 1-1.34-.28 4.67 4.67 0 0 0-1.19-.28.42.42 0 0 0-.25.5 3.85 3.85 0 0 0 .94 2.2c.12.15.24.31.35.47s.36.5.57.74a1.49 1.49 0 0 0 1.16.52 2.66 2.66 0 0 0 1.65-.68A3.05 3.05 0 0 0 27.58 3a1 1 0 0 0 0-.18 1.62 1.62 0 0 1 .17-.82 1.77 1.77 0 0 1 .43-.39 2.07 2.07 0 0 0-.44.4 1.48 1.48 0 0 0-.16.84 1.21 1.21 0 0 0 0 .18 3.08 3.08 0 0 1-.64 2.05 2.66 2.66 0 0 1-1.64.68 1.51 1.51 0 0 1-1.15-.52c-.21-.24-.38-.48-.57-.74s-.23-.31-.35-.47a3.82 3.82 0 0 1-.94-2.18c0-.2 0-.42.24-.48a5.35 5.35 0 0 1 1.19.27 4.75 4.75 0 0 0 1.34.29h.35a3.07 3.07 0 0 0 1.35-.39c.32-.25.34-.67.35-1.15V0c-.01.13-.02.24-.02.34zm.2 6.47c-.09.07-.22.18-.21.33a.6.6 0 0 1 .08.08 2.94 2.94 0 0 0 .51 0 2.94 2.94 0 0 0 .51 0 2.22 2.22 0 0 1-.51.06 2.73 2.73 0 0 1-.5 0l-.08-.08c0-.14.12-.24.21-.31a2.75 2.75 0 0 1 .59-.33l.29-.13-.3.14a2.75 2.75 0 0 0-.59.24zm.57-6.7a.36.36 0 0 0 .32.34.34.34 0 0 1-.3-.33.41.41 0 0 1 0-.11z"/><path d="M26 2.53a1.24 1.24 0 0 0-.27 0c-.2 0-.41.1-.64.16a5.33 5.33 0 0 1-.76.2c-.23 0-.33.14-.31.31a4.08 4.08 0 0 1 .21.56 2 2 0 0 0 .65 1.13 1.11 1.11 0 0 0 .6.17 1.43 1.43 0 0 0 1-.41 1.64 1.64 0 0 0 .42-.91 1.36 1.36 0 0 0-.21-1 .86.86 0 0 0-.69-.21zm.46 2.15a1.44 1.44 0 0 1-1 .4 1.07 1.07 0 0 1-.59-.16 2.06 2.06 0 0 1-.65-1.13 4.08 4.08 0 0 0-.2-.56c0-.16.06-.26.29-.3a7.85 7.85 0 0 0 .77-.19 6.12 6.12 0 0 1 .64-.17h.26a.86.86 0 0 1 .67.26 1.59 1.59 0 0 1-.15 1.85zM11.08 8.34a3.49 3.49 0 0 1 .19.39l.15.34a9.23 9.23 0 0 0 1.08 2 5.8 5.8 0 0 0 .59.63c.2.2.38.38.53.56s.13.19.19.28a1.68 1.68 0 0 0 .44.51h.06a19.57 19.57 0 0 0 2.11-.21 4.27 4.27 0 0 0 1-.29 1.34 1.34 0 0 0 .62-1 .56.56 0 0 0 0-.12A2.29 2.29 0 0 1 19.18 10l.4-.21.7-.37.3-.16.5-.26a1.89 1.89 0 0 0 .3-.19l.07-.06a1.46 1.46 0 0 1 .3-.17 2.11 2.11 0 0 1 .66-.1 2.87 2.87 0 0 0 .59-.1.67.67 0 0 0 .41-.26c.33-.48.16-.85-.11-1.31a3.34 3.34 0 0 0-1.05-1.12 1 1 0 0 0-.25-.12 1.57 1.57 0 0 1-.25-.14l-.26-.19-.21-.17a4.52 4.52 0 0 0-1-.58 1.18 1.18 0 0 0-.4-.06 1.55 1.55 0 0 0-.31 0 1 1 0 0 0-.33.14l-.14.07-.16.06-.2.08-.47.29a4.08 4.08 0 0 1-.44.28 5.69 5.69 0 0 1-2 .73 5.09 5.09 0 0 1-.55 0 3.79 3.79 0 0 1-.67-.06 4.77 4.77 0 0 1-.49-.02 3.56 3.56 0 0 0-.91-.17 1.12 1.12 0 0 0-.45.08 2.75 2.75 0 0 0-.82.55l-.43.36-.13.09c-.11.08-.25.17-.37.27a.52.52 0 0 0-.21.6 4 4 0 0 0 .28.56zM11 7.15a4.33 4.33 0 0 1 .37-.27l.12-.09c.16-.12.3-.24.44-.36a2.84 2.84 0 0 1 .81-.55 1.33 1.33 0 0 1 .45-.08 3.65 3.65 0 0 1 .91.17 4.77 4.77 0 0 0 .51.13 3.79 3.79 0 0 0 .67.06 3.39 3.39 0 0 0 .55 0 5.55 5.55 0 0 0 2-.73 3.4 3.4 0 0 0 .45-.28c.15-.1.31-.2.46-.28a1 1 0 0 1 .21-.09l.16-.06.14-.07a1.15 1.15 0 0 1 .32-.14h.31a1.43 1.43 0 0 1 .39.06 4.14 4.14 0 0 1 1 .58l.21.17.27.19a1.23 1.23 0 0 0 .25.14 2.39 2.39 0 0 1 .22.12 3.25 3.25 0 0 1 1.05 1.12c.27.45.44.82.11 1.3a.64.64 0 0 1-.4.24 2.32 2.32 0 0 1-.58.08 1.91 1.91 0 0 0-.67.1 1.46 1.46 0 0 0-.3.17l-.07.06a1.53 1.53 0 0 1-.3.19c-.16.08-.32.16-.47.25l-.3.16c-.24.12-.48.24-.71.37l-.38.19a2.26 2.26 0 0 0-1.06 1.47v.12a1.34 1.34 0 0 1-.62 1 4.12 4.12 0 0 1-1 .28 15.71 15.71 0 0 1-2.11.21h-.05a1.62 1.62 0 0 1-.44-.5 2.75 2.75 0 0 0-.19-.28c-.15-.19-.34-.37-.53-.57a5.8 5.8 0 0 1-.59-.63 8.57 8.57 0 0 1-1.07-2c0-.11-.11-.23-.15-.34s-.13-.26-.2-.38a3.56 3.56 0 0 1-.27-.61.49.49 0 0 1 .08-.62z"/><path d="M12.24 9.23v.1a3.57 3.57 0 0 0 1.45 2.15 4.53 4.53 0 0 0 1.21.71 2.24 2.24 0 0 0 .72.1 2.77 2.77 0 0 0 1-.16c.67-.28.91-.86 1.19-1.53a4.55 4.55 0 0 1 2-2.45 1.67 1.67 0 0 1 .53-.11h.22c.27 0 .58-.1.94-.18h.16a1 1 0 0 0 .72-.5.56.56 0 0 0 0-.55c-.32-.47-1.42-.64-1.87-.64h-.94a1.14 1.14 0 0 0-.53.19 1.23 1.23 0 0 1-.66.18 4.07 4.07 0 0 1-.59-.06h-.19a6 6 0 0 0-.9-.06h-1.34a5.66 5.66 0 0 1-1-.08l-.27-.06a2.85 2.85 0 0 0-.67-.1 1 1 0 0 0-.36 0A1.82 1.82 0 0 0 12 7.61a1.86 1.86 0 0 0 0 .62 9.75 9.75 0 0 0 .24 1zM12 7.61a1.79 1.79 0 0 1 1.07-1.34 1.36 1.36 0 0 1 .36 0 2.93 2.93 0 0 1 .67.11l.27.06a5.75 5.75 0 0 0 1 .07h1.28a6.07 6.07 0 0 1 .9.06h.19a4.07 4.07 0 0 0 .59.06A1.18 1.18 0 0 0 19 6.4a1 1 0 0 1 .53-.18h.33c.2 0 .41-.05.6-.05.45 0 1.54.17 1.86.64a.57.57 0 0 1 0 .54 1 1 0 0 1-.72.49h-.15a9.12 9.12 0 0 1-.94.17h-.22a1.44 1.44 0 0 0-.53.11 4.47 4.47 0 0 0-2 2.46 2.39 2.39 0 0 1-1.18 1.52 2.77 2.77 0 0 1-1 .16 2.24 2.24 0 0 1-.72-.1 4.34 4.34 0 0 1-1.2-.71 3.5 3.5 0 0 1-1.45-2.14v-.09c-.09-.33-.17-.65-.24-1a1.86 1.86 0 0 1 .03-.61zM27 9l-.09.15a.93.93 0 0 0-.17.48 5.61 5.61 0 0 0 0 .58 3.19 3.19 0 0 1 0 .69 2.74 2.74 0 0 1-1.51 2 2.17 2.17 0 0 1-.24.07h-.15c-.42 0-.52-.42-.62-.83a2.13 2.13 0 0 0-.07-.27 1.33 1.33 0 0 0-.42-.72 1.86 1.86 0 0 0-.87-.34 2.48 2.48 0 0 0-.45 0 2.39 2.39 0 0 0-.89.18.76.76 0 0 0-.47.3 2 2 0 0 0-.32 1.3c.08.39.36.47.66.55l.18.05.22.09a11.52 11.52 0 0 0 1.56.72 2.12 2.12 0 0 1 1 1.08 2.19 2.19 0 0 0 1 1.05.7.7 0 0 0 .25.05 1.27 1.27 0 0 0 .36-.07 2.25 2.25 0 0 0 .9-.81 7.11 7.11 0 0 1 1.36-1.5h.05-.06a7.11 7.11 0 0 0-1.36 1.5 2.29 2.29 0 0 1-.89.81 1.23 1.23 0 0 1-.36.06.61.61 0 0 1-.24 0 2.15 2.15 0 0 1-1-1 2.16 2.16 0 0 0-1-1.08 12.21 12.21 0 0 1-1.56-.72 1.23 1.23 0 0 0-.23-.09h-.17c-.3-.09-.58-.16-.66-.54a2 2 0 0 1 .26-1.5.77.77 0 0 1 .46-.3 2.65 2.65 0 0 1 .89-.18 2.48 2.48 0 0 1 .45.05 1.35 1.35 0 0 1 1.28 1 2.68 2.68 0 0 1 .07.27c.1.41.2.84.63.84H25l.23-.08a2.5 2.5 0 0 0 1-.8 2.86 2.86 0 0 0 .53-1.17 4.12 4.12 0 0 0 0-.7 3.74 3.74 0 0 1 0-.58 1 1 0 0 1 .18-.48L27 9a1.4 1.4 0 0 1 .91-.32h.28-.28A1.43 1.43 0 0 0 27 9z"/><path d="M27.45 10a2.52 2.52 0 0 0-.1.64v.26c0 .35-.1.72-.17 1.07a6.5 6.5 0 0 0-.14.94.25.25 0 0 0 .14.06l.41-.21a4.51 4.51 0 0 0 .57-.31 5.45 5.45 0 0 1-.58.31l-.41.21a.22.22 0 0 1-.13-.06 8.28 8.28 0 0 1 .14-.94 9.91 9.91 0 0 0 .17-1.07v-.26a2 2 0 0 1 .09-.63.62.62 0 0 1 .56-.5h.15L28 9.5a.62.62 0 0 0-.55.5zm-5.05 1.72c-.25 0-.5.12-.5.39a.94.94 0 0 0 .77.59.37.37 0 0 0 .21-.06.39.39 0 0 0 .17-.26.6.6 0 0 0-.11-.42.67.67 0 0 0-.54-.24zm.64.66a.37.37 0 0 1-.17.25.34.34 0 0 1-.2.06.93.93 0 0 1-.76-.58c0-.26.25-.38.49-.38a.65.65 0 0 1 .53.24.56.56 0 0 1 .07.41zm3.65.96h-.08a.69.69 0 0 0-.34.13l-.13.07a.2.2 0 0 1-.08 0c-.37.18-.89.44-.85 1a.48.48 0 0 0 .44.38h.06a1.83 1.83 0 0 0 .85-1.07.92.92 0 0 0 .11-.54zm-.13.53a1.85 1.85 0 0 1-.85 1.13h-.06a.46.46 0 0 1-.43-.36c0-.59.48-.85.85-1h.08l.13-.07a.81.81 0 0 1 .33-.13h.07a.82.82 0 0 1-.12.43zM22.06 18a.59.59 0 0 0-.37-.17c-.29 0-.48.32-.52.65a2.45 2.45 0 0 0 0 .72.45.45 0 0 0 .31.39h.4a.49.49 0 0 0 .44-.21 1.37 1.37 0 0 0 .07-.73 1.23 1.23 0 0 0-.33-.65zm.27 1.43a.46.46 0 0 1-.43.21h-.4a.41.41 0 0 1-.3-.37 2.47 2.47 0 0 1 0-.72c0-.32.22-.64.5-.64a.55.55 0 0 1 .36.17 1.14 1.14 0 0 1 .34.7 1.25 1.25 0 0 1-.07.61zM1.38 22.31l.33-.07a3.53 3.53 0 0 1 .4-.08h.43a2.25 2.25 0 0 0 .93-.2.85.85 0 0 0 .28-1 2.82 2.82 0 0 0-.82-1.39c-.13-.11-.26-.24-.38-.36a2.72 2.72 0 0 0-.83-.63c-.25-.1-.54-.17-.81-.25l-.51-.22L.15 18H0h.14l.25.09.51.14a5.22 5.22 0 0 1 .82.25 2.51 2.51 0 0 1 .82.62c.12.12.25.25.38.36a2.7 2.7 0 0 1 .81 1.38.84.84 0 0 1-.26 1 2.24 2.24 0 0 1-.93.19 3.12 3.12 0 0 0-.44 0 3.33 3.33 0 0 0-.39.08l-.33.07-.69.1-.69.23.69-.1c.22-.02.46-.05.69-.1z"/><path d="M1.08 21.52a7.25 7.25 0 0 0 .9-.29 1.23 1.23 0 0 0 .71-.57.91.91 0 0 0-.44-1.11L2 19.39a2.53 2.53 0 0 0-1-.5 7.09 7.09 0 0 0-1-.09 6.94 6.94 0 0 1 1 .09 2.23 2.23 0 0 1 1 .5l.22.15a.9.9 0 0 1 .44 1.09 1.22 1.22 0 0 1-.71.56 5.82 5.82 0 0 1-.89.3l-.47.14a4.47 4.47 0 0 1-.61.14 4.52 4.52 0 0 0 .61-.15z"/><path d="M1 23.08a6.91 6.91 0 0 0 .91 0c.28 0 .53-.09.78-.14h.32a3.69 3.69 0 0 0 1.35-.48A1.15 1.15 0 0 0 4.67 21a4.15 4.15 0 0 0-.83-1.07 4.5 4.5 0 0 1-.72-.93c-.09-.12-.16-.23-.23-.34A1.34 1.34 0 0 0 2 18c-.92-.22-1.71-.4-1.85-1.31a1.78 1.78 0 0 1 .08-.82 1.7 1.7 0 0 0 .1-.59l-.07-.07-.1-.09L0 15.1h.16l.1.09.07.06a1.61 1.61 0 0 1-.1.58 1.83 1.83 0 0 0-.09.83c.15.92 1 1.1 1.87 1.32a1.34 1.34 0 0 1 .87.73 3.39 3.39 0 0 0 .23.34 4.27 4.27 0 0 0 .72.86A4.28 4.28 0 0 1 4.66 21a1.17 1.17 0 0 1-.31 1.41 3.57 3.57 0 0 1-1.35.43.7.7 0 0 1-.14 0l-.19.05c-.24 0-.5.11-.77.14a6.91 6.91 0 0 1-.91 0 4.63 4.63 0 0 0-1 0H0a6.44 6.44 0 0 1 1 .05zm9.11-2.96l.11.06a1.86 1.86 0 0 1 .37.38 2.18 2.18 0 0 1 .42.88c.11.48.41.68.9.84a2.68 2.68 0 0 0 .89.15 2.28 2.28 0 0 0 .45 0 1 1 0 0 0 .92-.87c0-.09 0-.19.05-.29a1.55 1.55 0 0 0-.09-1.16 1 1 0 0 0-.88-.33h-.7c-.28-.05-.56-.12-.83-.18a5.37 5.37 0 0 0-1.28-.22h-.26a.36.36 0 0 0-.26.25.42.42 0 0 0 0 .41.5.5 0 0 0 .19.08zm-.17-.52a.34.34 0 0 1 .24-.24h.26a5.34 5.34 0 0 1 1.28.21 7.65 7.65 0 0 0 .83.18h.7a.94.94 0 0 1 .87.33 1.53 1.53 0 0 1 .08 1.15v.29a1 1 0 0 1-.91.86 2.28 2.28 0 0 1-.45 0 2.68 2.68 0 0 1-.89-.15c-.48-.16-.78-.35-.89-.83a2.22 2.22 0 0 0-.42-.89 1.86 1.86 0 0 0-.37-.38l-.11-.06A.42.42 0 0 1 10 20a.4.4 0 0 1-.06-.4z"/><path d="M12.52 21.88a1.23 1.23 0 0 0 .39-.05h.07a.3.3 0 0 0 .2-.28.38.38 0 0 0-.49-.38 1.11 1.11 0 0 0-.54.41.26.26 0 0 0 0 .19c.03.09.22.11.37.11zm-.36-.32a1 1 0 0 1 .54-.4h.1a.36.36 0 0 1 .26.11.43.43 0 0 1 .11.27.29.29 0 0 1-.19.27h-.07a1.61 1.61 0 0 1-.39.05c-.21 0-.34-.05-.37-.13a.19.19 0 0 1 .01-.17zm4.4 5.27v-.1a.34.34 0 0 0 0-.1 3.84 3.84 0 0 0-.2-.75 5.41 5.41 0 0 1-.24-.85v-.37c0-.4-.08-.81-.36-1a1.07 1.07 0 0 0-.58-.12h-.65a5.44 5.44 0 0 0-2.1.48 2.07 2.07 0 0 0-.6 1.77A2.46 2.46 0 0 0 13 27.54a2.44 2.44 0 0 1-1.23-1.72 2 2 0 0 1 .6-1.75 5.21 5.21 0 0 1 2.09-.47h.65a1.09 1.09 0 0 1 .58.12c.27.18.31.59.35 1v.37a5.41 5.41 0 0 0 .24.85 5 5 0 0 1 .2.75v.2a1.79 1.79 0 0 1-.07.71 1.8 1.8 0 0 0 .15-.77zm-14.7.09a5 5 0 0 1 0-.55 4.38 4.38 0 0 0 0-.75c-.12-.52-.77-.89-1.35-1.07A1.17 1.17 0 0 0 0 24.5a1.4 1.4 0 0 1 .49.06c.57.17 1.22.54 1.33 1.05a3 3 0 0 1 0 .75v.55a4.14 4.14 0 0 1 0 .62 4.14 4.14 0 0 0 .04-.61z"/><path d="M15.88 26.71c0-.13-.07-.28-.11-.45a5.27 5.27 0 0 1-.19-.76 2.07 2.07 0 0 1 0-.22 1.43 1.43 0 0 0-.42-1.06 1.71 1.71 0 0 0-1-.26 2.33 2.33 0 0 0-1.35.36 1.55 1.55 0 0 0-.44 1.53c.1.53.48.79 1 1.14a6 6 0 0 1 .68.53c-.24-.21-.48-.38-.69-.54-.47-.33-.84-.6-.95-1.12a1.57 1.57 0 0 1 .44-1.52 2.37 2.37 0 0 1 1.23-.34 1.83 1.83 0 0 1 1 .26c.3.23.35.59.41 1.05v.22a5.42 5.42 0 0 0 .19.77 3.29 3.29 0 0 1 .12.44 1.81 1.81 0 0 1 0 .83 1.57 1.57 0 0 0 .08-.86zm-9.49-.78a2.35 2.35 0 0 1-.06-.81 1.1 1.1 0 0 1 0-.16c0-.2.12-.46-.14-.64-.47-.06-.76.33-1 .67-.07.09-.13.18-.2.26a3.5 3.5 0 0 1-.87.59A2.68 2.68 0 0 0 2.84 27a5.63 5.63 0 0 0-.19.54 5.41 5.41 0 0 1 .2-.54 2.58 2.58 0 0 1 1.29-1.15 3.43 3.43 0 0 0 .86-.6 2.73 2.73 0 0 0 .2-.25c.25-.34.53-.72 1-.67.24.18.18.42.13.63a.94.94 0 0 0 0 .16 2.34 2.34 0 0 0 .07.81c.08.3.21.59.33.91s.19.46.28.7H7c-.08-.24-.18-.48-.27-.71s-.25-.61-.34-.9z"/><path d="M13.87 24.35a1.35 1.35 0 0 0-.77.23 1 1 0 0 0-.37 1 1.58 1.58 0 0 0 1.54 1.07h.24a1.31 1.31 0 0 0 .25-.27 1.82 1.82 0 0 0 0-1.61 1.06 1.06 0 0 0-.89-.42zm.88 2a2.05 2.05 0 0 1-.24.26h-.24a1.56 1.56 0 0 1-1.53-1.05 1 1 0 0 1 .36-.95 1.35 1.35 0 0 1 .77-.22 1.05 1.05 0 0 1 .85.35 1.86 1.86 0 0 1 .03 1.58zm-4.09-.05a3 3 0 0 0-.51-1.3.63.63 0 0 0-.61-.25 3.78 3.78 0 0 0-1.44.79 1.61 1.61 0 0 0-.43 1.42 5.69 5.69 0 0 0 .15.63 5.27 5.27 0 0 1-.14-.64 1.57 1.57 0 0 1 .42-1.4 3.64 3.64 0 0 1 1.44-.78h.11a.6.6 0 0 1 .48.24 3.13 3.13 0 0 1 .51 1.35 3 3 0 0 0 .42 1.22 3.17 3.17 0 0 1-.4-1.28z"/><path d="M13.93 25.25a.25.25 0 0 0-.21-.14h-.08a.27.27 0 0 0-.09.15.15.15 0 0 0 0 .11l.05.05h.08a.26.26 0 0 0 .21-.13v-.07zm0 .06a.24.24 0 0 1-.2.13h-.07l-.05-.05a.12.12 0 0 1 0-.1.2.2 0 0 1 .08-.14h.07a.23.23 0 0 1 .2.12zm-13.28.52a.92.92 0 0 0-.65-.34.89.89 0 0 1 .64.34 3.07 3.07 0 0 1 .5 1.46 1.93 1.93 0 0 1 0 .24 1.93 1.93 0 0 0 0-.24 3.11 3.11 0 0 0-.49-1.46zm8.4.17H9a.69.69 0 0 0-.45.24 1.23 1.23 0 0 0-.22.88c0 .14 0 .28.07.42a3 3 0 0 1-.06-.42 1.14 1.14 0 0 1 .21-.87A.6.6 0 0 1 9 26h.05c.53 0 .73.64.9 1.19 0 .12.07.23.11.34 0-.11-.07-.22-.11-.34-.16-.55-.36-1.19-.9-1.19zm-3.6.53h-.27a2 2 0 0 0-1 .28 1.87 1.87 0 0 0-.7.75 1.93 1.93 0 0 1 1.71-1h.27a1.53 1.53 0 0 1 1 .88l.06.12a.83.83 0 0 0-.07-.13 1.54 1.54 0 0 0-1-.9zM0 27.09a.26.26 0 0 1 .23.19.51.51 0 0 1 0 .25.71.71 0 0 0 0-.26.29.29 0 0 0-.23-.18z"/><path d="M4.43 27.54a1.25 1.25 0 0 1 .71-.23 1.07 1.07 0 0 1 .67.23 1.05 1.05 0 0 0-.69-.24 1.31 1.31 0 0 0-.69.24zm18.93-1.27c-.15-.28-.31-.58-.44-.88s-.13-.35-.2-.54c-.29-.83-.61-1.76-1.62-1.76a2.39 2.39 0 0 0-.94.24l-.17.08-.5.24a5.45 5.45 0 0 1-1.49.5h-.14c-.34.07-.76.16-.9.56a2.12 2.12 0 0 0 .04 1.1 3.56 3.56 0 0 1 .09.39 3.41 3.41 0 0 1 0 1.19v.15-.14a3.47 3.47 0 0 0 0-1.2c0-.13-.05-.26-.08-.4a2 2 0 0 1-.09-1.06c.14-.39.55-.48.89-.55h.14a5.69 5.69 0 0 0 1.49-.5l.5-.24.17-.08a2.52 2.52 0 0 1 .93-.24c1 0 1.32.93 1.61 1.75a5.58 5.58 0 0 0 .2.54 9.2 9.2 0 0 0 .44.89c.13.24.26.47.36.7a2.58 2.58 0 0 0 .34.56 2.58 2.58 0 0 1-.35-.56 7.9 7.9 0 0 0-.28-.74zm4.45-2.47a2.49 2.49 0 0 0-1.6 1.71 7.54 7.54 0 0 0-.14.79 6 6 0 0 1-.2.95.75.75 0 0 1-.16.29 1 1 0 0 0 .16-.28 6.51 6.51 0 0 0 .19-1c0-.27.08-.56.14-.79a2.47 2.47 0 0 1 1.6-1.7l.28-.08a1.71 1.71 0 0 0-.27.11z"/><path d="M27 17.84a3.65 3.65 0 0 0-.77.31 2.83 2.83 0 0 1-.77.31c-.68.15-.93-.45-1.16-1l-.09-.22a4.47 4.47 0 0 0-.43-.75 4.09 4.09 0 0 0-1.09-1.07 2.64 2.64 0 0 0-1-.4 2.08 2.08 0 0 0-1.24.26l-.27.11a1.74 1.74 0 0 0-.78.5 4 4 0 0 0-.38.67v.06c-.21.43-.36.85-.53 1.3l-.1.31c-.1.28-.2.56-.32.84a3 3 0 0 1-.36.56 2.86 2.86 0 0 0-.22.3 3.72 3.72 0 0 1-.71.72l-.27.24-.17.14a1.84 1.84 0 0 0-.66.84V22a1.28 1.28 0 0 1-.54.94 3.12 3.12 0 0 1-1.17.36l-.54.08a7.69 7.69 0 0 0-.92.15 1.55 1.55 0 0 0-1.16 1.33 3.87 3.87 0 0 0 .15 1.88 2 2 0 0 0 .6.77 2.1 2.1 0 0 1-.61-.78 4.07 4.07 0 0 1-.15-1.87 1.53 1.53 0 0 1 1.15-1.31 6.06 6.06 0 0 1 .92-.16l.54-.08a3 3 0 0 0 1.16-.31 1.27 1.27 0 0 0 .54-.95v-.13a1.87 1.87 0 0 1 .66-.83l.17-.15.27-.23a3.72 3.72 0 0 0 .71-.72 2.86 2.86 0 0 1 .22-.3 3 3 0 0 0 .36-.57c.12-.27.22-.56.32-.84 0-.1.07-.2.11-.3a12.31 12.31 0 0 1 .53-1.33 3.67 3.67 0 0 1 .39-.67 1.59 1.59 0 0 1 .76-.49l.27-.12a2.18 2.18 0 0 1 1.24-.26 2.54 2.54 0 0 1 1 .4 4 4 0 0 1 1.09 1.07 4.79 4.79 0 0 1 .43.74l.09.22a2.72 2.72 0 0 0 .41.75.76.76 0 0 0 .77.24 3.88 3.88 0 0 0 .77-.31 3.15 3.15 0 0 1 .76-.32 2.15 2.15 0 0 1 1.17.14 2.25 2.25 0 0 0-1.15-.2z"/><path d="M26.32 22.78a2.44 2.44 0 0 1-1 .69c-.53.16-.93-.23-1.32-.61l-.07-.07a3.43 3.43 0 0 0-.67-.48c-.16-.1-.33-.21-.49-.33s-.24-.17-.35-.25-.17-.11-.24-.17a1.3 1.3 0 0 1-.31-.39 1.88 1.88 0 0 0-.16-.23 2.63 2.63 0 0 0-.56-.49c-.38-.26-.74-.5-.76-1a2.68 2.68 0 0 1 .18-1 3 3 0 0 1 .67-1 .78.78 0 0 1 .6-.29c.36 0 .66.41.89.74a1.88 1.88 0 0 1 .24.57 2.79 2.79 0 0 0 .11.35c.05.12.12.24.17.36a3.28 3.28 0 0 1 .25.58 1.71 1.71 0 0 1 0 1.12 1.15 1.15 0 0 0 .07 1 1.86 1.86 0 0 0 .8.48l.18.07h.07a1.12 1.12 0 0 0 .27.1c.45.09.75-.12.94-.66a1.21 1.21 0 0 0-.38-1.43 3 3 0 0 0-.44-.28l-.2-.12h-.06a2 2 0 0 1-.57-.43 3.72 3.72 0 0 1-.49-.81 4.72 4.72 0 0 1-.16-.45l-.14-.35a3.08 3.08 0 0 0-.37-.67 2.42 2.42 0 0 0-1-.81c-.6-.23-1.4.36-1.8.81a3.12 3.12 0 0 0-.48.84l-.09.23a5.36 5.36 0 0 1-.57 1.15 3.48 3.48 0 0 0-.22.36l-.15.26a1.35 1.35 0 0 1-.56.45l-.29.14a3 3 0 0 0-.8.49.44.44 0 0 0-.17.44c0 .25.33.44.58.54a3.55 3.55 0 0 0 1.62.06h.2A1.41 1.41 0 0 0 20 22l.11-.05a3.37 3.37 0 0 1 1-.44 1.19 1.19 0 0 1 .81.09.51.51 0 0 1 .21.27.75.75 0 0 0 .1.2 3.5 3.5 0 0 0 .67.6 3.65 3.65 0 0 1 .65.59 3.22 3.22 0 0 1 .29.48 4 4 0 0 0 .28.46.73.73 0 0 0 .83.26 3.18 3.18 0 0 0 .85-.46l.14-.1.45-.36a4.75 4.75 0 0 1 1.21-.81 3.05 3.05 0 0 1 .58-.16 2.86 2.86 0 0 0-.58.16 5 5 0 0 0-1.22.81l-.45.36-.13.1a3.49 3.49 0 0 1-.88.55.71.71 0 0 1-.82-.26 3.29 3.29 0 0 1-.28-.46 3.11 3.11 0 0 0-.29-.47 3.14 3.14 0 0 0-.66-.6 3.77 3.77 0 0 1-.66-.6 1.74 1.74 0 0 1-.1-.19.61.61 0 0 0-.21-.29 1.22 1.22 0 0 0-.82-.08 3.29 3.29 0 0 0-1 .43L20 22a1.48 1.48 0 0 1-.67.17h-.19a3.55 3.55 0 0 1-1.62-.06.83.83 0 0 1-.57-.52.46.46 0 0 1 .17-.43 3 3 0 0 1 .79-.49l.3-.14a1.29 1.29 0 0 0 .56-.46l.15-.25c.07-.12.14-.25.22-.36a5.47 5.47 0 0 0 .58-1.16 1 1 0 0 1 .09-.22 2.94 2.94 0 0 1 .47-.84c.39-.44 1.19-1 1.78-.81a2.32 2.32 0 0 1 1 .81 2.5 2.5 0 0 1 .37.66c.05.12.09.24.13.35s.1.31.16.46a3.72 3.72 0 0 0 .49.81 2.19 2.19 0 0 0 .57.43h.06l.2.11a2.52 2.52 0 0 1 .44.28 1.22 1.22 0 0 1 .38 1.42c-.18.53-.49.74-.93.65a1.39 1.39 0 0 1-.26-.1h-.08a.75.75 0 0 0-.18-.07 1.73 1.73 0 0 1-.78-.48 1.07 1.07 0 0 1-.08-1 1.74 1.74 0 0 0 0-1.13 3.83 3.83 0 0 0-.24-.59 3 3 0 0 1-.17-.36 1.61 1.61 0 0 1-.12-.35 2 2 0 0 0-.24-.57c-.23-.33-.54-.71-.9-.74a.76.76 0 0 0-.61.29 3 3 0 0 0-.67 1 2.87 2.87 0 0 0-.19 1c0 .52.4.77.77 1a2.89 2.89 0 0 1 .56.48 1.88 1.88 0 0 1 .16.23 1.23 1.23 0 0 0 .31.4l.24.17.35.25a4.68 4.68 0 0 0 .49.33 3.43 3.43 0 0 1 .67.48l.07.07c.39.38.8.77 1.34.62a2.65 2.65 0 0 0 1-.7 3.2 3.2 0 0 1 1-.76 4 4 0 0 1 .84-.23 3.87 3.87 0 0 0-.84.24 3.24 3.24 0 0 0-1.05.89z"/><path d="M26.8 18.88a3 3 0 0 0-.66.27 1.67 1.67 0 0 1-1.13.27c-.65-.21-.9-.9-1.13-1.51 0-.12-.08-.24-.13-.36a3.29 3.29 0 0 0-.38-.69 3.11 3.11 0 0 0-.81-.73l-.14-.13a1.31 1.31 0 0 0-1-.32 1.07 1.07 0 0 0-.36.14l-.21.1-.15.05a2.61 2.61 0 0 0-1.1.62 2.1 2.1 0 0 0-.22.33l-.1.17a4.34 4.34 0 0 0-.37.71 6.42 6.42 0 0 0-.23.86 4.2 4.2 0 0 1-.26.92 1.73 1.73 0 0 1-.76.7l-.23.15a6.52 6.52 0 0 0-.55.48l-.34.33a1.1 1.1 0 0 0-.34 1.06c.14.73.42.85 1 .95a5 5 0 0 0 1.8-.01 3.08 3.08 0 0 0 1-.55l.36-.23a1.29 1.29 0 0 1 1.53.16l.19.15a2.68 2.68 0 0 1 .89 1 4.43 4.43 0 0 1 .18.59 4.3 4.3 0 0 0 .18.58 2.38 2.38 0 0 0 .6.82 1 1 0 0 0 .88.3c.31-.09.5-.44.69-.81a3.44 3.44 0 0 1 .42-.69 5.27 5.27 0 0 1 .72-.66 3.41 3.41 0 0 1 1.38-.76h.11-.11a3.39 3.39 0 0 0-1.39.76 5.27 5.27 0 0 0-.72.66 3.74 3.74 0 0 0-.42.69c-.19.37-.38.72-.68.81a1 1 0 0 1-.87-.3 2.55 2.55 0 0 1-.6-.81c-.07-.19-.12-.39-.17-.58a5.8 5.8 0 0 0-.19-.59 2.66 2.66 0 0 0-.9-1l-.18-.15a1.29 1.29 0 0 0-1.55-.16l-.36.23a2.82 2.82 0 0 1-1.08.54 4.76 4.76 0 0 1-1.66.06c-.61-.1-.89-.22-1-.94a1.1 1.1 0 0 1 .32-1.05c.13-.11.24-.22.35-.33a5.11 5.11 0 0 1 .55-.48l.23-.15a1.81 1.81 0 0 0 .77-.7 6.12 6.12 0 0 0 .26-.93 5.09 5.09 0 0 1 .23-.85 3.94 3.94 0 0 1 .36-.71l.1-.17a2.1 2.1 0 0 1 .22-.33 2.45 2.45 0 0 1 1.1-.66h.16l.21-.1a1.42 1.42 0 0 1 .35-.14 1.32 1.32 0 0 1 .95.32l.14.09a3.11 3.11 0 0 1 .81.73 3.29 3.29 0 0 1 .38.69c0 .11.09.23.13.36.22.61.47 1.3 1.13 1.51a1.66 1.66 0 0 0 1.15-.27 3.46 3.46 0 0 1 .65-.27 7.7 7.7 0 0 1 1.38-.07 7.56 7.56 0 0 0-1.38.03zm-.27-10.44a1.49 1.49 0 0 0-.63 1 2 2 0 0 0 0 .54 1.88 1.88 0 0 1 0 .58.69.69 0 0 1-.29.49.35.35 0 0 1-.33 0 3.06 3.06 0 0 0-1.18-.94l-.42-.11-.25-.08a4.32 4.32 0 0 0-1.91-.27 1.47 1.47 0 0 0-1 .38 3.69 3.69 0 0 0-.44.62c-.1.15-.2.31-.31.45a2 2 0 0 1-.19.22 1.64 1.64 0 0 0-.27.32 1.39 1.39 0 0 0-.1.92 2.3 2.3 0 0 0 .53.95l.17.23a1.78 1.78 0 0 0 .53.56 1.51 1.51 0 0 0 .79.11l.28-.06a.92.92 0 0 1 .4 0 3.39 3.39 0 0 1 1.36.7 3.08 3.08 0 0 1 .51.51l.34.45c.2.27.41.55.64.83a.83.83 0 0 0 1 .34 2.86 2.86 0 0 0 .68-.39 5.56 5.56 0 0 0 .84-.84 5.1 5.1 0 0 1 .69-.7.92.92 0 0 1 .26-.11.63.63 0 0 0-.26.11 4.29 4.29 0 0 0-.7.71 5.48 5.48 0 0 1-.84.83 2.8 2.8 0 0 1-.67.39.83.83 0 0 1-.95-.34c-.23-.28-.44-.56-.64-.82l-.34-.46a3.51 3.51 0 0 0-.51-.51 3.37 3.37 0 0 0-1.37-.7.84.84 0 0 0-.41 0 1.28 1.28 0 0 1-.27.05 1.51 1.51 0 0 1-.79-.1 1.76 1.76 0 0 1-.52-.56l-.17-.23a2.27 2.27 0 0 1-.53-.94 1.36 1.36 0 0 1 .1-.91 2.06 2.06 0 0 1 .27-.33 1.9 1.9 0 0 0 .19-.21 4.5 4.5 0 0 0 .31-.45 3.32 3.32 0 0 1 .44-.62 1.44 1.44 0 0 1 1-.38 4.34 4.34 0 0 1 1.91.27l.25.08a3.72 3.72 0 0 1 .44.16 3 3 0 0 1 1.17.93.39.39 0 0 0 .35 0 .73.73 0 0 0 .3-.5 2.25 2.25 0 0 0 0-.58 2.46 2.46 0 0 1 0-.54 1.5 1.5 0 0 1 .63-1 2.72 2.72 0 0 1 1.64-.39 2.75 2.75 0 0 0-1.73.34zM7.68 1.26a2.37 2.37 0 0 1 0 .75A2.63 2.63 0 0 1 7 3c-.41.45-.84.9-.71 1.52a.78.78 0 0 0 .55.63 2.73 2.73 0 0 0 .93 0 3.41 3.41 0 0 1 1.35.16 3.59 3.59 0 0 1 .73.43 2.23 2.23 0 0 0 .94.46 1.08 1.08 0 0 0 .36 0 2.48 2.48 0 0 0 .8-.39 1.93 1.93 0 0 1 1.7-.41c.19 0 .37.09.57.15a2.36 2.36 0 0 0 2 0 4 4 0 0 0 1.46-1.5 9.72 9.72 0 0 1 .59-.8c.27-.32.64-.75 1.09-.6a3.61 3.61 0 0 0 .55.12 2 2 0 0 1 .85.26 2.37 2.37 0 0 1 .49.46l.21.23a3.71 3.71 0 0 1 .42.54 4 4 0 0 0 .35.46l.51.46a7.59 7.59 0 0 1 .6.66 2.8 2.8 0 0 0 1.17 1 1.88 1.88 0 0 0 1.07 0 6.52 6.52 0 0 0 .73-.29 9.89 9.89 0 0 0 1.28-.7 1.8 1.8 0 0 0 .65-.79V5a1.78 1.78 0 0 1-.66.82 10.47 10.47 0 0 1-1.28.7 7.72 7.72 0 0 1-.72.29 1.88 1.88 0 0 1-1.07 0 2.85 2.85 0 0 1-1.16-1 7.59 7.59 0 0 0-.6-.66l-.51-.46a4 4 0 0 1-.35-.46 4.34 4.34 0 0 0-.42-.54l-.21-.23a2.37 2.37 0 0 0-.49-.46 2.09 2.09 0 0 0-.86-.26 3.61 3.61 0 0 1-.55-.12c-.46-.15-.83.28-1.1.6s-.4.53-.59.8a4.09 4.09 0 0 1-1.45 1.5 2.44 2.44 0 0 1-2 0l-.57-.15a2 2 0 0 0-1.71.4 2.25 2.25 0 0 1-.79.39 1.08 1.08 0 0 1-.36 0 2.38 2.38 0 0 1-.93-.46 3.66 3.66 0 0 0-.74-.43 3.33 3.33 0 0 0-1.39-.07c-.61 0-1.31.08-1.47-.67S6.56 3.47 7 3a2.66 2.66 0 0 0 .71-1 2.15 2.15 0 0 0 0-.76A7.18 7.18 0 0 0 7.43.13a.5.5 0 0 0 0-.13v.13a7 7 0 0 1 .25 1.13zm19.04 24.83a7.08 7.08 0 0 0-.09.79 6.62 6.62 0 0 1-.08.66c0-.21.05-.43.07-.66a7.08 7.08 0 0 1 .09-.79A1.71 1.71 0 0 1 28 24.53h.14H28a1.72 1.72 0 0 0-1.28 1.56z"/><path d="M22.91 26.81a6.8 6.8 0 0 0-.32-.81v-.05c-.08-.17-.14-.36-.21-.56a3.36 3.36 0 0 0-.55-1.14 1.49 1.49 0 0 0-1.11-.42A1.8 1.8 0 0 0 20 24a2.14 2.14 0 0 0-.62.4 1.16 1.16 0 0 1-.53.27l-.38.16a1.2 1.2 0 0 0-.64.82 5.43 5.43 0 0 0-.05 1.09v.7a.57.57 0 0 0 0 .13v-.83a6.28 6.28 0 0 1 0-1.09 1.24 1.24 0 0 1 .64-.81 2.15 2.15 0 0 1 .38-.15 1.42 1.42 0 0 0 .53-.28A2.22 2.22 0 0 1 20 24a1.8 1.8 0 0 1 .71-.14 1.48 1.48 0 0 1 1.1.42 3.22 3.22 0 0 1 .55 1.13 4.79 4.79 0 0 0 .21.57 5.48 5.48 0 0 1 .31.82c.05.15.08.31.12.48a2 2 0 0 1 0 .24v-.23c0-.16 0-.29-.09-.48z"/><path d="M22.31 27.05a2.65 2.65 0 0 0-.16-.66.86.86 0 0 0-.13-.23L21.9 26c0-.08-.08-.18-.12-.28-.11-.29-.23-.59-.55-.68a1.15 1.15 0 0 0-.3 0h-.55a2.28 2.28 0 0 0-1.19.42 1.61 1.61 0 0 0-.56 1.12 1.82 1.82 0 0 0 0 .92v-.05a1.78 1.78 0 0 1 0-.91 1.59 1.59 0 0 1 .56-1.11 2.28 2.28 0 0 1 1.18-.42h.55a1.21 1.21 0 0 1 .3 0c.31.08.43.38.54.66 0 .11.08.2.12.29s.08.11.11.17a.74.74 0 0 1 .14.22 2.62 2.62 0 0 1 .15.66 2.56 2.56 0 0 1 0 .49 3.79 3.79 0 0 0 .03-.45zm5.85-1.57c-.62.06-1 .73-1.05 2.06.09-1.32.43-2 1-2zM28 27.15a.84.84 0 0 0-.15.39.92.92 0 0 1 .15-.38.27.27 0 0 1 .16-.06.29.29 0 0 0-.17.06zM7.21 25.78a2 2 0 0 1 .55-.84l.13-.14a1.56 1.56 0 0 0 .47-.67.9.9 0 0 0-.5-.95 2.42 2.42 0 0 0-.47-.26 2.62 2.62 0 0 1-.6-.37 1.85 1.85 0 0 1-.49-.69 2.12 2.12 0 0 1-.12-.41 1.89 1.89 0 0 0-.1-.41 4.8 4.8 0 0 0-1.17-1.71 1.76 1.76 0 0 1-.63-.9 1.19 1.19 0 0 1 .08-.64 2.38 2.38 0 0 1 1.36-1.57 3.28 3.28 0 0 1 .53-.11 4.81 4.81 0 0 0 .67-.15 2.41 2.41 0 0 0 .7-.42 1.12 1.12 0 0 1 .79-.33 1.61 1.61 0 0 1 .91.42 1.49 1.49 0 0 1 .54.81 4.4 4.4 0 0 1 .05.45v.35a2.21 2.21 0 0 0 .88 1.46 3.51 3.51 0 0 0 1.53.6 3.09 3.09 0 0 0 1.87-.3 4.54 4.54 0 0 0 1.24-1.08 1.84 1.84 0 0 0 .63-1.33A3.16 3.16 0 0 0 16 16a1.94 1.94 0 0 0 0-.24v-.18a2.22 2.22 0 0 1 0-.63.63.63 0 0 1 .78-.59 1.56 1.56 0 0 1 1.32 1 2 2 0 0 1-.1 1.22v.07a3.79 3.79 0 0 1-.72 1.45c-.18.21-.38.4-.57.59l-.21.22c-.1.1-.21.19-.32.28a4.38 4.38 0 0 0-.39.36 3.16 3.16 0 0 0-.39.59 7.92 7.92 0 0 0-.7 1.62 1.39 1.39 0 0 1-.94.93 5.28 5.28 0 0 1-2.55-.06 1.1 1.1 0 0 1-1-.92 1.76 1.76 0 0 0-.89-1.13l-.31-.24c-.43-.35-.21-.68 0-1a1.75 1.75 0 0 0 .25-.49 1.38 1.38 0 0 0-.04-.85 3.45 3.45 0 0 1-.11-.4c-.1-.6-.21-1.08-.52-1.28a.74.74 0 0 0-.65 0H7.8l-.33.08a4.51 4.51 0 0 1-.53.09 5.59 5.59 0 0 0-.64.1 1.57 1.57 0 0 0-.87.48A1.52 1.52 0 0 0 5 18a.85.85 0 0 0 0 .39 1.9 1.9 0 0 0 .77.89l.2.17H6c.3.25.67.56.65 1a2.24 2.24 0 0 0 .19 1.05 1.91 1.91 0 0 0 1.1 1l.13.05a4.89 4.89 0 0 1 .57.27 1.29 1.29 0 0 1 .35.3l.19.18a3.32 3.32 0 0 1 .25.27c.21.26.45.56.81.49a1.74 1.74 0 0 0 .58-.31 2.65 2.65 0 0 1 .54-.32 5.26 5.26 0 0 1 1.33-.2c.3 0 .62 0 .91-.08a2 2 0 0 0 1.4-.76 2.37 2.37 0 0 0 .17-.36 2.24 2.24 0 0 1 .13-.27.61.61 0 0 1 .15-.17.76.76 0 0 0 .09-.09l.16-.18.17-.21a4 4 0 0 1 .3-.28 3.7 3.7 0 0 0 .28-.28 1.5 1.5 0 0 0 .2-.24 1.79 1.79 0 0 1 .22-.28 4.07 4.07 0 0 0 .43-.49 1.62 1.62 0 0 0 .21-.47.88.88 0 0 1 .05-.15 1.59 1.59 0 0 1 .18-.34.76.76 0 0 0 .12-.19 4.78 4.78 0 0 0 .34-.73c0-.06.05-.13.08-.2v-.08c0-.13.09-.26.14-.38a7.5 7.5 0 0 0 .35-1.08 1.56 1.56 0 0 0 0-.68 2.48 2.48 0 0 0-1.63-1.76 3.18 3.18 0 0 0-1.15 0 1 1 0 0 0-.92 1.2v.5a4.49 4.49 0 0 1 0 1 1.94 1.94 0 0 1-.13.47 8.91 8.91 0 0 1-.62 1.12 2.11 2.11 0 0 1-1.06.89 2.47 2.47 0 0 1-2.27-.53 1.36 1.36 0 0 1-.42-1.39.56.56 0 0 1 0-.12.58.58 0 0 0 .06-.17 3.25 3.25 0 0 1 .31-.42 1.14 1.14 0 0 0 .38-1c0-.07-.05-.15-.08-.23s-.15-.36-.06-.46a5.16 5.16 0 0 1 .57-.59 3.2 3.2 0 0 0 .88-1.08 1 1 0 0 0-.22-.84c-.1-.16-.23-.32-.35-.5l-.3-.41-.24-.34c-.17-.26-.34-.5-.51-.75L11 9.56c-.11-.18-.23-.36-.34-.52a.83.83 0 0 0-.86-.41 2.56 2.56 0 0 0-.93.52l-.12.09c-.55.41-1.17.87-1.33 1.38s.12.65.39.86l.08.07a3.47 3.47 0 0 1 .43.43 4.23 4.23 0 0 1 .41.6c.1.14.18.28.27.39a2.45 2.45 0 0 0 1 .73 2.37 2.37 0 0 1 1 .7.37.37 0 0 1 0 .11 1.09 1.09 0 0 1-1.28.28 2.1 2.1 0 0 1-.48-.23 1.55 1.55 0 0 0-1.21-.27 1.74 1.74 0 0 0-.76.54 2.06 2.06 0 0 1-.75.55 2.78 2.78 0 0 1-.65.1c-.68.06-1 .13-1.29.49a9.13 9.13 0 0 0-1 1.64 1.81 1.81 0 0 0-.1.32 1.59 1.59 0 0 0 .58 1.4l.25.23a2.29 2.29 0 0 1 .23.21 2.57 2.57 0 0 1 .46.53l.18.26a1.93 1.93 0 0 1 .45 1.73 1.38 1.38 0 0 1-.91 1.09 4.54 4.54 0 0 1-.66.11 5.16 5.16 0 0 0-.67.1 4.41 4.41 0 0 0-.55.16 5.05 5.05 0 0 1-.72.18 3 3 0 0 1-1.17-.12 2.68 2.68 0 0 0-.92-.1H0a2.47 2.47 0 0 1 .92.11 3.2 3.2 0 0 0 1.17.11 4 4 0 0 0 .72-.18l.55-.16c.22-.05.45-.07.67-.1a6.53 6.53 0 0 0 .66-.1 1.37 1.37 0 0 0 .92-1.11 2 2 0 0 0-.45-1.74L5 20.3a2.64 2.64 0 0 0-.38-.5 2.29 2.29 0 0 0-.23-.21l-.25-.23a1.57 1.57 0 0 1-.6-1.36 2.64 2.64 0 0 1 .1-.31 8.8 8.8 0 0 1 1-1.64c.27-.35.6-.43 1.28-.48a2.31 2.31 0 0 0 .65-.11 2 2 0 0 0 .76-.55 1.69 1.69 0 0 1 .75-.54 1.52 1.52 0 0 1 1.2.28 4.26 4.26 0 0 0 .49.23 1.15 1.15 0 0 0 1.3-.29.24.24 0 0 0 0-.12 2.35 2.35 0 0 0-1-.7A2.42 2.42 0 0 1 9 13a4.4 4.4 0 0 1-.26-.39 5.33 5.33 0 0 0-.42-.6 4.33 4.33 0 0 0-.43-.43.27.27 0 0 1-.08-.07c-.27-.21-.52-.41-.39-.84s.78-1 1.32-1.38l.12-.09a2.59 2.59 0 0 1 .94-.52.83.83 0 0 1 .84.41c.11.15.23.34.34.51l.21.32.51.76.24.34.3.41c.12.17.25.34.35.5a1 1 0 0 1 .21.83 3.22 3.22 0 0 1-.87 1.07 6.14 6.14 0 0 0-.57.59c-.09.11 0 .29.05.47a1.17 1.17 0 0 1 .09.24 1.16 1.16 0 0 1-.38 1 3.36 3.36 0 0 0-.31.43.76.76 0 0 1-.06.16.61.61 0 0 0-.05.12 1.39 1.39 0 0 0 .43 1.4 2.49 2.49 0 0 0 2.29.54 2.13 2.13 0 0 0 1.06-.9 7.7 7.7 0 0 0 .62-1.12 1.57 1.57 0 0 0 .13-.47 5.11 5.11 0 0 0 0-1v-.5a1.18 1.18 0 0 1 .18-.81 1.06 1.06 0 0 1 .72-.37 2.94 2.94 0 0 1 1.14 0 2.48 2.48 0 0 1 1.63 1.75 1.56 1.56 0 0 1 0 .68 8.32 8.32 0 0 1-.48.96c-.05.13-.1.26-.14.38a.36.36 0 0 0 0 .09c0 .06 0 .13-.07.2a5.26 5.26 0 0 1-.34.73c0 .06-.08.12-.12.19a1.59 1.59 0 0 0-.18.34.88.88 0 0 0-.05.15 1.73 1.73 0 0 1-.21.46 3.43 3.43 0 0 1-.43.49 1.79 1.79 0 0 0-.22.28c-.06.08-.12.17-.19.25l-.29.27a2.72 2.72 0 0 0-.3.29 1.63 1.63 0 0 0-.17.2l-.16.18a.76.76 0 0 1-.09.09.61.61 0 0 0-.15.17 1.75 1.75 0 0 0-.13.28 2.26 2.26 0 0 1-.17.35 1.9 1.9 0 0 1-1.36.7 9 9 0 0 1-.91.09 4.84 4.84 0 0 0-1.33.2 2.73 2.73 0 0 0-.55.32 1.5 1.5 0 0 1-.57.3c-.36.07-.59-.22-.8-.47a2.35 2.35 0 0 0-.25-.28L9 23.06a1.52 1.52 0 0 0-.35-.31c-.19-.1-.39-.18-.58-.26h-.12a1.9 1.9 0 0 1-1.1-1 2.15 2.15 0 0 1-.18-1.05c0-.43-.36-.74-.66-1H6l-.21-.17a1.89 1.89 0 0 1-.79-.91.74.74 0 0 1 0-.36 1.56 1.56 0 0 1 1.28-1.34c.22-.05.43-.07.63-.1a4.68 4.68 0 0 0 .54-.08l.32-.09h.15a.76.76 0 0 1 .64 0c.3.19.41.67.51 1.28a1.9 1.9 0 0 0 .11.39 1.39 1.39 0 0 1 .11.79 2.21 2.21 0 0 1-.25.48c-.23.36-.44.69 0 1.05l.32.24a1.77 1.77 0 0 1 .88 1.13 1.09 1.09 0 0 0 1 .92 5.43 5.43 0 0 0 2.55.07 1.41 1.41 0 0 0 1-.95 8.42 8.42 0 0 1 .7-1.62 3.1 3.1 0 0 1 .39-.58 4.38 4.38 0 0 1 .39-.36c.11-.09.22-.18.32-.28l.21-.22c.19-.19.39-.38.57-.59a4 4 0 0 0 .63-1.49v-.06a2 2 0 0 0 .08-1.27 1.59 1.59 0 0 0-1.33-1 .65.65 0 0 0-.79.61 2.22 2.22 0 0 0 0 .63v1.04a1.85 1.85 0 0 1-.63 1.32A4.66 4.66 0 0 1 14.19 19a3.11 3.11 0 0 1-1.77.24 2.55 2.55 0 0 1-2.4-2v-.35c0-.12 0-.28-.06-.46a1.55 1.55 0 0 0-.54-.82 1.68 1.68 0 0 0-.92-.41 1.15 1.15 0 0 0-.8.33 2.71 2.71 0 0 1-.7.42 6.48 6.48 0 0 1-.68.15c-.19 0-.37.06-.52.1a2.38 2.38 0 0 0-1.37 1.59 1.2 1.2 0 0 0-.08.65 1.72 1.72 0 0 0 .64.9 4.58 4.58 0 0 1 1.15 1.71 1.4 1.4 0 0 1 .11.4 2.21 2.21 0 0 0 .12.42 1.94 1.94 0 0 0 .49.69 2.62 2.62 0 0 0 .6.37 2.16 2.16 0 0 1 .47.26.88.88 0 0 1 .49.94 1.56 1.56 0 0 1-.46.66l-.13.15a2 2 0 0 0-.55.83 2.32 2.32 0 0 0 0 1c0 .26.12.51.19.75-.07-.24-.14-.49-.19-.75a2.28 2.28 0 0 1-.07-.99z"/></svg>